<svg xmlns="http://www.w3.org/2000/svg" xmlns:xlink="http://www.w3.org/1999/xlink" width="400" zoomAndPan="magnify" viewBox="0 0 300 112.499997" height="150" preserveAspectRatio="xMidYMid meet" version="1.2"><defs/><g id="3a8e4a4bf3"><g style="fill:#5271ff;fill-opacity:1;"><g transform="translate(16.466353, 61.109887)"><path style="stroke:none" d="M 17.359375 -25.6875 L 17.359375 -24.28125 L 8.734375 -24.28125 C 6.972656 -24.28125 5.609375 -23.941406 4.640625 -23.265625 C 3.671875 -22.597656 3.1875 -21.4375 3.1875 -19.78125 C 3.1875 -19.0625 3.304688 -18.441406 3.546875 -17.921875 C 3.796875 -17.398438 4.128906 -16.941406 4.546875 -16.546875 C 4.960938 -16.148438 5.457031 -15.804688 6.03125 -15.515625 C 6.601562 -15.222656 7.222656 -14.96875 7.890625 -14.75 C 8.648438 -14.476562 9.453125 -14.234375 10.296875 -14.015625 C 11.140625 -13.796875 11.960938 -13.550781 12.765625 -13.28125 C 13.578125 -13.007812 14.347656 -12.695312 15.078125 -12.34375 C 15.804688 -11.988281 16.445312 -11.546875 17 -11.015625 C 17.550781 -10.492188 17.992188 -9.863281 18.328125 -9.125 C 18.660156 -8.394531 18.828125 -7.519531 18.828125 -6.5 C 18.828125 -5.394531 18.632812 -4.429688 18.25 -3.609375 C 17.875 -2.796875 17.335938 -2.125 16.640625 -1.59375 C 15.941406 -1.070312 15.109375 -0.675781 14.140625 -0.40625 C 13.171875 -0.132812 12.101562 0 10.9375 0 L 1.578125 0 L 1.578125 -1.390625 L 10.75 -1.390625 C 12.726562 -1.390625 14.296875 -1.789062 15.453125 -2.59375 C 16.617188 -3.40625 17.203125 -4.632812 17.203125 -6.28125 C 17.203125 -7.445312 16.929688 -8.394531 16.390625 -9.125 C 15.859375 -9.863281 15.175781 -10.457031 14.34375 -10.90625 C 13.507812 -11.363281 12.582031 -11.734375 11.5625 -12.015625 C 10.550781 -12.296875 9.554688 -12.582031 8.578125 -12.875 C 7.648438 -13.144531 6.765625 -13.441406 5.921875 -13.765625 C 5.078125 -14.097656 4.332031 -14.535156 3.6875 -15.078125 C 3.039062 -15.617188 2.523438 -16.273438 2.140625 -17.046875 C 1.765625 -17.816406 1.578125 -18.773438 1.578125 -19.921875 C 1.578125 -21.753906 2.179688 -23.171875 3.390625 -24.171875 C 4.597656 -25.179688 6.195312 -25.6875 8.1875 -25.6875 Z M 17.359375 -25.6875 "/></g></g><g style="fill:#5271ff;fill-opacity:1;"><g transform="translate(36.865385, 61.109887)"><path style="stroke:none" d="M 27.328125 -12.84375 C 27.328125 -11.03125 26.984375 -9.320312 26.296875 -7.71875 C 25.617188 -6.113281 24.691406 -4.707031 23.515625 -3.5 C 22.335938 -2.289062 20.953125 -1.332031 19.359375 -0.625 C 17.773438 0.0820312 16.066406 0.4375 14.234375 0.4375 C 12.398438 0.4375 10.6875 0.0820312 9.09375 -0.625 C 7.507812 -1.332031 6.132812 -2.289062 4.96875 -3.5 C 3.8125 -4.707031 2.894531 -6.113281 2.21875 -7.71875 C 1.539062 -9.320312 1.203125 -11.03125 1.203125 -12.84375 C 1.203125 -14.625 1.53125 -16.320312 2.1875 -17.9375 C 2.851562 -19.550781 3.773438 -20.960938 4.953125 -22.171875 C 6.128906 -23.390625 7.507812 -24.351562 9.09375 -25.0625 C 10.6875 -25.769531 12.398438 -26.125 14.234375 -26.125 C 16.117188 -26.125 17.859375 -25.757812 19.453125 -25.03125 C 21.054688 -24.3125 22.4375 -23.335938 23.59375 -22.109375 C 24.757812 -20.890625 25.671875 -19.476562 26.328125 -17.875 C 26.992188 -16.28125 27.328125 -14.601562 27.328125 -12.84375 Z M 14.234375 -0.953125 C 15.796875 -0.953125 17.273438 -1.265625 18.671875 -1.890625 C 20.066406 -2.515625 21.289062 -3.363281 22.34375 -4.4375 C 23.394531 -5.507812 24.21875 -6.765625 24.8125 -8.203125 C 25.414062 -9.648438 25.71875 -11.195312 25.71875 -12.84375 C 25.71875 -14.425781 25.421875 -15.929688 24.828125 -17.359375 C 24.242188 -18.796875 23.4375 -20.054688 22.40625 -21.140625 C 21.382812 -22.234375 20.171875 -23.101562 18.765625 -23.75 C 17.359375 -24.40625 15.835938 -24.734375 14.203125 -24.734375 C 12.609375 -24.734375 11.117188 -24.421875 9.734375 -23.796875 C 8.359375 -23.171875 7.15625 -22.316406 6.125 -21.234375 C 5.101562 -20.160156 4.296875 -18.898438 3.703125 -17.453125 C 3.117188 -16.015625 2.828125 -14.476562 2.828125 -12.84375 C 2.828125 -11.25 3.113281 -9.726562 3.6875 -8.28125 C 4.257812 -6.84375 5.050781 -5.578125 6.0625 -4.484375 C 7.082031 -3.398438 8.289062 -2.539062 9.6875 -1.90625 C 11.082031 -1.269531 12.597656 -0.953125 14.234375 -0.953125 Z M 14.234375 -0.953125 "/></g></g><g style="fill:#5271ff;fill-opacity:1;"><g transform="translate(65.409351, 61.109887)"><path style="stroke:none" d="M 17.984375 -18.234375 C 17.984375 -16.984375 17.78125 -15.875 17.375 -14.90625 C 16.96875 -13.945312 16.410156 -13.125 15.703125 -12.4375 C 14.992188 -11.75 14.164062 -11.226562 13.21875 -10.875 C 12.28125 -10.519531 11.285156 -10.34375 10.234375 -10.34375 L 5.09375 -10.34375 L 5.09375 -11.734375 L 10.203125 -11.734375 C 11.109375 -11.734375 11.9375 -11.882812 12.6875 -12.1875 C 13.445312 -12.5 14.101562 -12.941406 14.65625 -13.515625 C 15.207031 -14.085938 15.628906 -14.769531 15.921875 -15.5625 C 16.210938 -16.363281 16.359375 -17.253906 16.359375 -18.234375 C 16.359375 -19.191406 16.210938 -20.070312 15.921875 -20.875 C 15.628906 -21.6875 15.210938 -22.375 14.671875 -22.9375 C 14.140625 -23.5 13.476562 -23.9375 12.6875 -24.25 C 11.90625 -24.570312 11.039062 -24.734375 10.09375 -24.734375 C 9.15625 -24.734375 8.296875 -24.566406 7.515625 -24.234375 C 6.734375 -23.898438 6.0625 -23.460938 5.5 -22.921875 C 4.9375 -22.390625 4.5 -21.757812 4.1875 -21.03125 C 3.882812 -20.3125 3.734375 -19.578125 3.734375 -18.828125 L 3.734375 0 L 2.203125 0 L 2.203125 -18.671875 C 2.203125 -19.703125 2.378906 -20.660156 2.734375 -21.546875 C 3.085938 -22.441406 3.601562 -23.234375 4.28125 -23.921875 C 4.96875 -24.609375 5.796875 -25.144531 6.765625 -25.53125 C 7.734375 -25.925781 8.84375 -26.125 10.09375 -26.125 C 11.257812 -26.125 12.332031 -25.929688 13.3125 -25.546875 C 14.289062 -25.171875 15.125 -24.632812 15.8125 -23.9375 C 16.5 -23.238281 17.03125 -22.40625 17.40625 -21.4375 C 17.789062 -20.476562 17.984375 -19.410156 17.984375 -18.234375 Z M 17.984375 -18.234375 "/></g></g><g style="fill:#5271ff;fill-opacity:1;"><g transform="translate(83.753802, 61.109887)"><path style="stroke:none" d="M 2.5625 -25.6875 L 4.109375 -25.6875 L 4.109375 -14.09375 L 18.3125 -14.09375 L 18.3125 -25.6875 L 19.84375 -25.6875 L 19.84375 0 L 18.3125 0 L 18.3125 -12.765625 L 4.109375 -12.765625 L 4.109375 0 L 2.5625 0 Z M 2.5625 -25.6875 "/></g></g><g style="fill:#5271ff;fill-opacity:1;"><g transform="translate(106.170725, 61.109887)"><path style="stroke:none" d="M 2.34375 -25.6875 L 3.890625 -25.6875 L 3.890625 -18.453125 C 3.890625 -17.597656 4.03125 -16.785156 4.3125 -16.015625 C 4.59375 -15.242188 5.007812 -14.570312 5.5625 -14 C 6.113281 -13.425781 6.769531 -12.96875 7.53125 -12.625 C 8.300781 -12.28125 9.191406 -12.109375 10.203125 -12.109375 C 11.148438 -12.109375 12.015625 -12.269531 12.796875 -12.59375 C 13.585938 -12.925781 14.253906 -13.375 14.796875 -13.9375 C 15.347656 -14.5 15.769531 -15.171875 16.0625 -15.953125 C 16.363281 -16.742188 16.515625 -17.578125 16.515625 -18.453125 L 16.515625 -25.6875 L 18.046875 -25.6875 L 18.046875 -18.53125 C 18.046875 -17.5 17.875 -16.507812 17.53125 -15.5625 C 17.1875 -14.625 16.707031 -13.800781 16.09375 -13.09375 C 15.488281 -12.382812 14.742188 -11.8125 13.859375 -11.375 C 12.984375 -10.9375 12.019531 -10.71875 10.96875 -10.71875 L 10.96875 0 L 9.421875 0 L 9.421875 -10.71875 C 8.367188 -10.738281 7.410156 -10.957031 6.546875 -11.375 C 5.679688 -11.789062 4.9375 -12.351562 4.3125 -13.0625 C 3.6875 -13.769531 3.203125 -14.585938 2.859375 -15.515625 C 2.515625 -16.441406 2.34375 -17.445312 2.34375 -18.53125 Z M 2.34375 -25.6875 "/></g></g><g style="fill:#5271ff;fill-opacity:1;"><g transform="translate(126.569756, 61.109887)"><path style="stroke:none" d=""/></g></g><g style="fill:#5271ff;fill-opacity:1;"><g transform="translate(136.769272, 61.109887)"><path style="stroke:none" d="M 14.53125 -25.6875 L 14.53125 -24.359375 L 9.359375 -24.359375 C 8.546875 -24.359375 7.800781 -24.195312 7.125 -23.875 C 6.457031 -23.5625 5.882812 -23.125 5.40625 -22.5625 C 4.9375 -22 4.566406 -21.34375 4.296875 -20.59375 C 4.023438 -19.851562 3.890625 -19.054688 3.890625 -18.203125 L 3.890625 -13.5 L 14.53125 -13.5 L 14.53125 -12.1875 L 3.890625 -12.1875 L 3.890625 0 L 2.34375 0 L 2.34375 -18.265625 C 2.34375 -19.390625 2.523438 -20.40625 2.890625 -21.3125 C 3.265625 -22.21875 3.753906 -22.992188 4.359375 -23.640625 C 4.972656 -24.296875 5.671875 -24.800781 6.453125 -25.15625 C 7.234375 -25.507812 8.039062 -25.6875 8.875 -25.6875 Z M 14.53125 -25.6875 "/></g></g><g style="fill:#5271ff;fill-opacity:1;"><g transform="translate(153.059141, 61.109887)"><path style="stroke:none" d="M 3.296875 -25.6875 L 4.84375 -25.6875 L 4.84375 0 L 3.296875 0 Z M 3.296875 -25.6875 "/></g></g><g style="fill:#5271ff;fill-opacity:1;"><g transform="translate(161.204076, 61.109887)"><path style="stroke:none" d="M 23.15625 -20.796875 C 22.101562 -22.066406 20.789062 -23.039062 19.21875 -23.71875 C 17.65625 -24.394531 15.992188 -24.734375 14.234375 -24.734375 C 12.597656 -24.734375 11.082031 -24.410156 9.6875 -23.765625 C 8.289062 -23.128906 7.082031 -22.265625 6.0625 -21.171875 C 5.050781 -20.085938 4.257812 -18.820312 3.6875 -17.375 C 3.113281 -15.9375 2.828125 -14.425781 2.828125 -12.84375 C 2.828125 -11.25 3.113281 -9.726562 3.6875 -8.28125 C 4.257812 -6.84375 5.050781 -5.578125 6.0625 -4.484375 C 7.082031 -3.398438 8.289062 -2.539062 9.6875 -1.90625 C 11.082031 -1.269531 12.597656 -0.953125 14.234375 -0.953125 C 15.722656 -0.953125 17.128906 -1.226562 18.453125 -1.78125 C 19.773438 -2.332031 20.9375 -3.109375 21.9375 -4.109375 C 22.9375 -5.109375 23.742188 -6.304688 24.359375 -7.703125 C 24.972656 -9.097656 25.316406 -10.640625 25.390625 -12.328125 L 14.234375 -12.328125 L 14.234375 -13.640625 L 27 -13.640625 L 27 -13.25 C 27 -11.1875 26.664062 -9.3125 26 -7.625 C 25.34375 -5.9375 24.429688 -4.5 23.265625 -3.3125 C 22.109375 -2.132812 20.753906 -1.210938 19.203125 -0.546875 C 17.648438 0.109375 15.992188 0.4375 14.234375 0.4375 C 12.398438 0.4375 10.6875 0.0820312 9.09375 -0.625 C 7.507812 -1.332031 6.132812 -2.289062 4.96875 -3.5 C 3.8125 -4.707031 2.894531 -6.113281 2.21875 -7.71875 C 1.539062 -9.320312 1.203125 -11.03125 1.203125 -12.84375 C 1.203125 -14.625 1.53125 -16.320312 2.1875 -17.9375 C 2.851562 -19.550781 3.773438 -20.960938 4.953125 -22.171875 C 6.128906 -23.390625 7.507812 -24.351562 9.09375 -25.0625 C 10.6875 -25.769531 12.398438 -26.125 14.234375 -26.125 C 16.210938 -26.125 18.070312 -25.769531 19.8125 -25.0625 C 21.550781 -24.351562 23.019531 -23.300781 24.21875 -21.90625 Z M 23.15625 -20.796875 "/></g></g><g style="fill:#5271ff;fill-opacity:1;"><g transform="translate(189.748042, 61.109887)"><path style="stroke:none" d="M 20.03125 0 L 18.484375 0 L 18.484375 -12.546875 L 5.359375 -12.546875 L 5.359375 -13.875 L 18.484375 -13.875 L 18.484375 -17.90625 C 18.484375 -18.851562 18.320312 -19.742188 18 -20.578125 C 17.6875 -21.410156 17.21875 -22.128906 16.59375 -22.734375 C 15.976562 -23.347656 15.21875 -23.832031 14.3125 -24.1875 C 13.40625 -24.550781 12.363281 -24.734375 11.1875 -24.734375 C 10.007812 -24.734375 8.96875 -24.550781 8.0625 -24.1875 C 7.164062 -23.832031 6.40625 -23.347656 5.78125 -22.734375 C 5.15625 -22.128906 4.679688 -21.410156 4.359375 -20.578125 C 4.046875 -19.742188 3.890625 -18.851562 3.890625 -17.90625 L 3.890625 0 L 2.34375 0 L 2.34375 -17.421875 C 2.34375 -18.765625 2.550781 -19.96875 2.96875 -21.03125 C 3.382812 -22.101562 3.972656 -23.015625 4.734375 -23.765625 C 5.492188 -24.523438 6.414062 -25.109375 7.5 -25.515625 C 8.59375 -25.921875 9.820312 -26.125 11.1875 -26.125 C 12.5625 -26.125 13.796875 -25.914062 14.890625 -25.5 C 15.992188 -25.082031 16.925781 -24.5 17.6875 -23.75 C 18.445312 -23.007812 19.023438 -22.097656 19.421875 -21.015625 C 19.828125 -19.941406 20.03125 -18.742188 20.03125 -17.421875 Z M 20.03125 0 "/></g></g><g style="fill:#5271ff;fill-opacity:1;"><g transform="translate(212.164965, 61.109887)"><path style="stroke:none" d="M 17.828125 -19.4375 C 17.828125 -17.90625 17.492188 -16.582031 16.828125 -15.46875 C 16.171875 -14.351562 15.097656 -13.539062 13.609375 -13.03125 L 13.609375 -12.953125 C 15.097656 -12.679688 16.257812 -12.03125 17.09375 -11 C 17.925781 -9.976562 18.34375 -8.695312 18.34375 -7.15625 L 18.34375 0 L 16.734375 0 L 16.734375 -7.375 C 16.734375 -8.84375 16.21875 -10.007812 15.1875 -10.875 C 14.15625 -11.75 12.6875 -12.1875 10.78125 -12.1875 L 5.359375 -12.1875 L 5.359375 -13.5 L 9.65625 -13.5 C 11.78125 -13.5 13.40625 -14.007812 14.53125 -15.03125 C 15.65625 -16.0625 16.21875 -17.484375 16.21875 -19.296875 C 16.21875 -20.109375 16.0625 -20.84375 15.75 -21.5 C 15.445312 -22.15625 15.019531 -22.722656 14.46875 -23.203125 C 13.914062 -23.679688 13.253906 -24.054688 12.484375 -24.328125 C 11.722656 -24.597656 10.890625 -24.734375 9.984375 -24.734375 C 7.992188 -24.734375 6.476562 -24.125 5.4375 -22.90625 C 4.40625 -21.695312 3.890625 -20.140625 3.890625 -18.234375 L 3.890625 0 L 2.34375 0 L 2.34375 -18.15625 C 2.34375 -19.28125 2.515625 -20.332031 2.859375 -21.3125 C 3.203125 -22.289062 3.703125 -23.132812 4.359375 -23.84375 C 5.023438 -24.550781 5.828125 -25.109375 6.765625 -25.515625 C 7.710938 -25.921875 8.785156 -26.125 9.984375 -26.125 C 11.179688 -26.125 12.257812 -25.957031 13.21875 -25.625 C 14.1875 -25.289062 15.015625 -24.820312 15.703125 -24.21875 C 16.390625 -23.625 16.914062 -22.914062 17.28125 -22.09375 C 17.644531 -21.28125 17.828125 -20.394531 17.828125 -19.4375 Z M 17.828125 -19.4375 "/></g></g><g style="fill:#5271ff;fill-opacity:1;"><g transform="translate(232.563997, 61.109887)"><path style="stroke:none" d="M 27.328125 -12.84375 C 27.328125 -11.03125 26.984375 -9.320312 26.296875 -7.71875 C 25.617188 -6.113281 24.691406 -4.707031 23.515625 -3.5 C 22.335938 -2.289062 20.953125 -1.332031 19.359375 -0.625 C 17.773438 0.0820312 16.066406 0.4375 14.234375 0.4375 C 12.398438 0.4375 10.6875 0.0820312 9.09375 -0.625 C 7.507812 -1.332031 6.132812 -2.289062 4.96875 -3.5 C 3.8125 -4.707031 2.894531 -6.113281 2.21875 -7.71875 C 1.539062 -9.320312 1.203125 -11.03125 1.203125 -12.84375 C 1.203125 -14.625 1.53125 -16.320312 2.1875 -17.9375 C 2.851562 -19.550781 3.773438 -20.960938 4.953125 -22.171875 C 6.128906 -23.390625 7.507812 -24.351562 9.09375 -25.0625 C 10.6875 -25.769531 12.398438 -26.125 14.234375 -26.125 C 16.117188 -26.125 17.859375 -25.757812 19.453125 -25.03125 C 21.054688 -24.3125 22.4375 -23.335938 23.59375 -22.109375 C 24.757812 -20.890625 25.671875 -19.476562 26.328125 -17.875 C 26.992188 -16.28125 27.328125 -14.601562 27.328125 -12.84375 Z M 14.234375 -0.953125 C 15.796875 -0.953125 17.273438 -1.265625 18.671875 -1.890625 C 20.066406 -2.515625 21.289062 -3.363281 22.34375 -4.4375 C 23.394531 -5.507812 24.21875 -6.765625 24.8125 -8.203125 C 25.414062 -9.648438 25.71875 -11.195312 25.71875 -12.84375 C 25.71875 -14.425781 25.421875 -15.929688 24.828125 -17.359375 C 24.242188 -18.796875 23.4375 -20.054688 22.40625 -21.140625 C 21.382812 -22.234375 20.171875 -23.101562 18.765625 -23.75 C 17.359375 -24.40625 15.835938 -24.734375 14.203125 -24.734375 C 12.609375 -24.734375 11.117188 -24.421875 9.734375 -23.796875 C 8.359375 -23.171875 7.15625 -22.316406 6.125 -21.234375 C 5.101562 -20.160156 4.296875 -18.898438 3.703125 -17.453125 C 3.117188 -16.015625 2.828125 -14.476562 2.828125 -12.84375 C 2.828125 -11.25 3.113281 -9.726562 3.6875 -8.28125 C 4.257812 -6.84375 5.050781 -5.578125 6.0625 -4.484375 C 7.082031 -3.398438 8.289062 -2.539062 9.6875 -1.90625 C 11.082031 -1.269531 12.597656 -0.953125 14.234375 -0.953125 Z M 14.234375 -0.953125 "/></g></g><g style="fill:#5271ff;fill-opacity:1;"><g transform="translate(261.107973, 61.109887)"><path style="stroke:none" d="M 20.03125 0 L 18.484375 0 L 18.484375 -12.546875 L 5.359375 -12.546875 L 5.359375 -13.875 L 18.484375 -13.875 L 18.484375 -17.90625 C 18.484375 -18.851562 18.320312 -19.742188 18 -20.578125 C 17.6875 -21.410156 17.21875 -22.128906 16.59375 -22.734375 C 15.976562 -23.347656 15.21875 -23.832031 14.3125 -24.1875 C 13.40625 -24.550781 12.363281 -24.734375 11.1875 -24.734375 C 10.007812 -24.734375 8.96875 -24.550781 8.0625 -24.1875 C 7.164062 -23.832031 6.40625 -23.347656 5.78125 -22.734375 C 5.15625 -22.128906 4.679688 -21.410156 4.359375 -20.578125 C 4.046875 -19.742188 3.890625 -18.851562 3.890625 -17.90625 L 3.890625 0 L 2.34375 0 L 2.34375 -17.421875 C 2.34375 -18.765625 2.550781 -19.96875 2.96875 -21.03125 C 3.382812 -22.101562 3.972656 -23.015625 4.734375 -23.765625 C 5.492188 -24.523438 6.414062 -25.109375 7.5 -25.515625 C 8.59375 -25.921875 9.820312 -26.125 11.1875 -26.125 C 12.5625 -26.125 13.796875 -25.914062 14.890625 -25.5 C 15.992188 -25.082031 16.925781 -24.5 17.6875 -23.75 C 18.445312 -23.007812 19.023438 -22.097656 19.421875 -21.015625 C 19.828125 -19.941406 20.03125 -18.742188 20.03125 -17.421875 Z M 20.03125 0 "/></g></g></g></svg>