<svg xmlns="http://www.w3.org/2000/svg" xmlns:xlink="http://www.w3.org/1999/xlink" width="500" zoomAndPan="magnify" viewBox="0 0 375 187.499995" height="250" preserveAspectRatio="xMidYMid meet" version="1.2"><defs><clipPath id="696eec7986"><path d="M 0.5 0 L 374.5 0 L 374.5 187 L 0.5 187 Z M 0.5 0 "/></clipPath></defs><g id="d14cec4a0a"><g clip-rule="nonzero" clip-path="url(#696eec7986)"><path style=" stroke:none;fill-rule:nonzero;fill:#ffffff;fill-opacity:1;" d="M 0.5 0 L 374.5 0 L 374.5 187 L 0.5 187 Z M 0.5 0 "/><path style=" stroke:none;fill-rule:nonzero;fill:#ffffff;fill-opacity:1;" d="M 0.5 0 L 374.5 0 L 374.5 187 L 0.5 187 Z M 0.5 0 "/></g><g style="fill:#5271ff;fill-opacity:1;"><g transform="translate(85.618854, 98.749724)"><path style="stroke:none" d="M 13.25 -19.59375 L 13.25 -18.53125 L 6.65625 -18.53125 C 5.3125 -18.53125 4.269531 -18.273438 3.53125 -17.765625 C 2.800781 -17.253906 2.4375 -16.363281 2.4375 -15.09375 C 2.4375 -14.550781 2.53125 -14.078125 2.71875 -13.671875 C 2.90625 -13.273438 3.15625 -12.925781 3.46875 -12.625 C 3.789062 -12.332031 4.171875 -12.070312 4.609375 -11.84375 C 5.046875 -11.625 5.515625 -11.425781 6.015625 -11.25 C 6.597656 -11.050781 7.207031 -10.863281 7.84375 -10.6875 C 8.488281 -10.519531 9.117188 -10.332031 9.734375 -10.125 C 10.359375 -9.925781 10.945312 -9.691406 11.5 -9.421875 C 12.0625 -9.148438 12.550781 -8.8125 12.96875 -8.40625 C 13.394531 -8.007812 13.734375 -7.53125 13.984375 -6.96875 C 14.234375 -6.40625 14.359375 -5.734375 14.359375 -4.953125 C 14.359375 -4.117188 14.210938 -3.382812 13.921875 -2.75 C 13.640625 -2.125 13.234375 -1.609375 12.703125 -1.203125 C 12.171875 -0.804688 11.535156 -0.503906 10.796875 -0.296875 C 10.054688 -0.0976562 9.238281 0 8.34375 0 L 1.203125 0 L 1.203125 -1.0625 L 8.203125 -1.0625 C 9.710938 -1.0625 10.910156 -1.367188 11.796875 -1.984375 C 12.679688 -2.597656 13.125 -3.53125 13.125 -4.78125 C 13.125 -5.675781 12.921875 -6.40625 12.515625 -6.96875 C 12.109375 -7.53125 11.585938 -7.984375 10.953125 -8.328125 C 10.316406 -8.671875 9.609375 -8.945312 8.828125 -9.15625 C 8.054688 -9.375 7.296875 -9.597656 6.546875 -9.828125 C 5.835938 -10.035156 5.160156 -10.265625 4.515625 -10.515625 C 3.878906 -10.765625 3.3125 -11.09375 2.8125 -11.5 C 2.320312 -11.914062 1.929688 -12.414062 1.640625 -13 C 1.347656 -13.59375 1.203125 -14.328125 1.203125 -15.203125 C 1.203125 -16.597656 1.660156 -17.675781 2.578125 -18.4375 C 3.503906 -19.207031 4.726562 -19.59375 6.25 -19.59375 Z M 13.25 -19.59375 "/></g></g><g style="fill:#5271ff;fill-opacity:1;"><g transform="translate(101.182547, 98.749724)"><path style="stroke:none" d="M 20.859375 -9.796875 C 20.859375 -8.421875 20.597656 -7.117188 20.078125 -5.890625 C 19.554688 -4.671875 18.847656 -3.597656 17.953125 -2.671875 C 17.054688 -1.742188 16 -1.007812 14.78125 -0.46875 C 13.570312 0.0703125 12.265625 0.34375 10.859375 0.34375 C 9.460938 0.34375 8.15625 0.0703125 6.9375 -0.46875 C 5.726562 -1.007812 4.679688 -1.742188 3.796875 -2.671875 C 2.910156 -3.597656 2.207031 -4.671875 1.6875 -5.890625 C 1.175781 -7.117188 0.921875 -8.421875 0.921875 -9.796875 C 0.921875 -11.160156 1.171875 -12.457031 1.671875 -13.6875 C 2.179688 -14.925781 2.882812 -16.003906 3.78125 -16.921875 C 4.675781 -17.847656 5.726562 -18.582031 6.9375 -19.125 C 8.15625 -19.664062 9.460938 -19.9375 10.859375 -19.9375 C 12.296875 -19.9375 13.625 -19.660156 14.84375 -19.109375 C 16.070312 -18.554688 17.128906 -17.8125 18.015625 -16.875 C 18.898438 -15.945312 19.59375 -14.867188 20.09375 -13.640625 C 20.601562 -12.421875 20.859375 -11.140625 20.859375 -9.796875 Z M 10.859375 -0.734375 C 12.054688 -0.734375 13.1875 -0.96875 14.25 -1.4375 C 15.3125 -1.914062 16.242188 -2.566406 17.046875 -3.390625 C 17.847656 -4.210938 18.476562 -5.171875 18.9375 -6.265625 C 19.394531 -7.367188 19.625 -8.546875 19.625 -9.796875 C 19.625 -11.015625 19.398438 -12.164062 18.953125 -13.25 C 18.503906 -14.34375 17.890625 -15.304688 17.109375 -16.140625 C 16.328125 -16.972656 15.398438 -17.632812 14.328125 -18.125 C 13.253906 -18.625 12.09375 -18.875 10.84375 -18.875 C 9.625 -18.875 8.488281 -18.632812 7.4375 -18.15625 C 6.382812 -17.675781 5.460938 -17.023438 4.671875 -16.203125 C 3.890625 -15.390625 3.273438 -14.429688 2.828125 -13.328125 C 2.378906 -12.222656 2.15625 -11.046875 2.15625 -9.796875 C 2.15625 -8.585938 2.375 -7.429688 2.8125 -6.328125 C 3.25 -5.222656 3.851562 -4.253906 4.625 -3.421875 C 5.40625 -2.597656 6.328125 -1.941406 7.390625 -1.453125 C 8.453125 -0.972656 9.609375 -0.734375 10.859375 -0.734375 Z M 10.859375 -0.734375 "/></g></g><g style="fill:#5271ff;fill-opacity:1;"><g transform="translate(122.960518, 98.749724)"><path style="stroke:none" d="M 13.71875 -13.921875 C 13.71875 -12.960938 13.5625 -12.113281 13.25 -11.375 C 12.945312 -10.644531 12.523438 -10.015625 11.984375 -9.484375 C 11.441406 -8.960938 10.8125 -8.566406 10.09375 -8.296875 C 9.375 -8.023438 8.613281 -7.890625 7.8125 -7.890625 L 3.890625 -7.890625 L 3.890625 -8.953125 L 7.78125 -8.953125 C 8.46875 -8.953125 9.101562 -9.066406 9.6875 -9.296875 C 10.269531 -9.535156 10.769531 -9.875 11.1875 -10.3125 C 11.601562 -10.75 11.921875 -11.269531 12.140625 -11.875 C 12.367188 -12.488281 12.484375 -13.171875 12.484375 -13.921875 C 12.484375 -14.648438 12.367188 -15.320312 12.140625 -15.9375 C 11.921875 -16.550781 11.601562 -17.070312 11.1875 -17.5 C 10.78125 -17.925781 10.28125 -18.257812 9.6875 -18.5 C 9.09375 -18.75 8.429688 -18.875 7.703125 -18.875 C 6.992188 -18.875 6.335938 -18.742188 5.734375 -18.484375 C 5.140625 -18.234375 4.628906 -17.90625 4.203125 -17.5 C 3.773438 -17.09375 3.441406 -16.613281 3.203125 -16.0625 C 2.972656 -15.507812 2.859375 -14.941406 2.859375 -14.359375 L 2.859375 0 L 1.6875 0 L 1.6875 -14.25 C 1.6875 -15.03125 1.816406 -15.757812 2.078125 -16.4375 C 2.347656 -17.125 2.742188 -17.726562 3.265625 -18.25 C 3.796875 -18.78125 4.425781 -19.191406 5.15625 -19.484375 C 5.894531 -19.785156 6.742188 -19.9375 7.703125 -19.9375 C 8.597656 -19.9375 9.414062 -19.789062 10.15625 -19.5 C 10.90625 -19.207031 11.539062 -18.796875 12.0625 -18.265625 C 12.59375 -17.734375 13 -17.097656 13.28125 -16.359375 C 13.570312 -15.628906 13.71875 -14.816406 13.71875 -13.921875 Z M 13.71875 -13.921875 "/></g></g><g style="fill:#5271ff;fill-opacity:1;"><g transform="translate(136.956643, 98.749724)"><path style="stroke:none" d="M 1.953125 -19.59375 L 3.140625 -19.59375 L 3.140625 -10.75 L 13.96875 -10.75 L 13.96875 -19.59375 L 15.140625 -19.59375 L 15.140625 0 L 13.96875 0 L 13.96875 -9.75 L 3.140625 -9.75 L 3.140625 0 L 1.953125 0 Z M 1.953125 -19.59375 "/></g></g><g style="fill:#5271ff;fill-opacity:1;"><g transform="translate(154.059911, 98.749724)"><path style="stroke:none" d="M 1.796875 -19.59375 L 2.96875 -19.59375 L 2.96875 -14.078125 C 2.96875 -13.429688 3.070312 -12.8125 3.28125 -12.21875 C 3.5 -11.632812 3.816406 -11.125 4.234375 -10.6875 C 4.660156 -10.25 5.164062 -9.894531 5.75 -9.625 C 6.34375 -9.363281 7.019531 -9.234375 7.78125 -9.234375 C 8.507812 -9.234375 9.171875 -9.359375 9.765625 -9.609375 C 10.367188 -9.867188 10.878906 -10.210938 11.296875 -10.640625 C 11.710938 -11.066406 12.03125 -11.578125 12.25 -12.171875 C 12.476562 -12.773438 12.59375 -13.410156 12.59375 -14.078125 L 12.59375 -19.59375 L 13.78125 -19.59375 L 13.78125 -14.140625 C 13.78125 -13.359375 13.644531 -12.609375 13.375 -11.890625 C 13.113281 -11.171875 12.75 -10.539062 12.28125 -10 C 11.820312 -9.457031 11.253906 -9.015625 10.578125 -8.671875 C 9.910156 -8.335938 9.175781 -8.171875 8.375 -8.171875 L 8.375 0 L 7.203125 0 L 7.203125 -8.171875 C 6.390625 -8.191406 5.648438 -8.359375 4.984375 -8.671875 C 4.328125 -8.992188 3.757812 -9.425781 3.28125 -9.96875 C 2.8125 -10.507812 2.445312 -11.132812 2.1875 -11.84375 C 1.925781 -12.550781 1.796875 -13.316406 1.796875 -14.140625 Z M 1.796875 -19.59375 "/></g></g><g style="fill:#5271ff;fill-opacity:1;"><g transform="translate(169.623605, 98.749724)"><path style="stroke:none" d=""/></g></g><g style="fill:#5271ff;fill-opacity:1;"><g transform="translate(177.405451, 98.749724)"><path style="stroke:none" d="M 11.09375 -19.59375 L 11.09375 -18.59375 L 7.140625 -18.59375 C 6.523438 -18.59375 5.957031 -18.46875 5.4375 -18.21875 C 4.925781 -17.976562 4.488281 -17.644531 4.125 -17.21875 C 3.757812 -16.789062 3.472656 -16.289062 3.265625 -15.71875 C 3.066406 -15.15625 2.96875 -14.546875 2.96875 -13.890625 L 2.96875 -10.296875 L 11.09375 -10.296875 L 11.09375 -9.296875 L 2.96875 -9.296875 L 2.96875 0 L 1.796875 0 L 1.796875 -13.9375 C 1.796875 -14.800781 1.929688 -15.578125 2.203125 -16.265625 C 2.484375 -16.953125 2.859375 -17.539062 3.328125 -18.03125 C 3.796875 -18.53125 4.328125 -18.914062 4.921875 -19.1875 C 5.523438 -19.457031 6.144531 -19.59375 6.78125 -19.59375 Z M 11.09375 -19.59375 "/></g></g><g style="fill:#5271ff;fill-opacity:1;"><g transform="translate(189.834008, 98.749724)"><path style="stroke:none" d="M 2.515625 -19.59375 L 3.703125 -19.59375 L 3.703125 0 L 2.515625 0 Z M 2.515625 -19.59375 "/></g></g><g style="fill:#5271ff;fill-opacity:1;"><g transform="translate(196.048286, 98.749724)"><path style="stroke:none" d="M 17.671875 -15.875 C 16.867188 -16.84375 15.867188 -17.582031 14.671875 -18.09375 C 13.472656 -18.613281 12.203125 -18.875 10.859375 -18.875 C 9.609375 -18.875 8.453125 -18.628906 7.390625 -18.140625 C 6.328125 -17.660156 5.40625 -17.003906 4.625 -16.171875 C 3.851562 -15.335938 3.25 -14.367188 2.8125 -13.265625 C 2.375 -12.171875 2.15625 -11.015625 2.15625 -9.796875 C 2.15625 -8.585938 2.375 -7.429688 2.8125 -6.328125 C 3.25 -5.222656 3.851562 -4.253906 4.625 -3.421875 C 5.40625 -2.597656 6.328125 -1.941406 7.390625 -1.453125 C 8.453125 -0.972656 9.609375 -0.734375 10.859375 -0.734375 C 12.003906 -0.734375 13.078125 -0.941406 14.078125 -1.359375 C 15.085938 -1.773438 15.972656 -2.363281 16.734375 -3.125 C 17.503906 -3.894531 18.125 -4.8125 18.59375 -5.875 C 19.0625 -6.9375 19.320312 -8.113281 19.375 -9.40625 L 10.859375 -9.40625 L 10.859375 -10.421875 L 20.609375 -10.421875 L 20.609375 -10.109375 C 20.609375 -8.535156 20.351562 -7.101562 19.84375 -5.8125 C 19.34375 -4.53125 18.648438 -3.4375 17.765625 -2.53125 C 16.878906 -1.625 15.84375 -0.914062 14.65625 -0.40625 C 13.46875 0.09375 12.203125 0.34375 10.859375 0.34375 C 9.460938 0.34375 8.15625 0.0703125 6.9375 -0.46875 C 5.726562 -1.007812 4.679688 -1.742188 3.796875 -2.671875 C 2.910156 -3.597656 2.207031 -4.671875 1.6875 -5.890625 C 1.175781 -7.117188 0.921875 -8.421875 0.921875 -9.796875 C 0.921875 -11.160156 1.171875 -12.457031 1.671875 -13.6875 C 2.179688 -14.925781 2.882812 -16.003906 3.78125 -16.921875 C 4.675781 -17.847656 5.726562 -18.582031 6.9375 -19.125 C 8.15625 -19.664062 9.460938 -19.9375 10.859375 -19.9375 C 12.367188 -19.9375 13.785156 -19.664062 15.109375 -19.125 C 16.441406 -18.582031 17.566406 -17.78125 18.484375 -16.71875 Z M 17.671875 -15.875 "/></g></g><g style="fill:#5271ff;fill-opacity:1;"><g transform="translate(217.826258, 98.749724)"><path style="stroke:none" d="M 15.28125 0 L 14.109375 0 L 14.109375 -9.578125 L 4.09375 -9.578125 L 4.09375 -10.578125 L 14.109375 -10.578125 L 14.109375 -13.65625 C 14.109375 -14.382812 13.988281 -15.066406 13.75 -15.703125 C 13.507812 -16.335938 13.148438 -16.890625 12.671875 -17.359375 C 12.191406 -17.828125 11.609375 -18.195312 10.921875 -18.46875 C 10.234375 -18.738281 9.441406 -18.875 8.546875 -18.875 C 7.648438 -18.875 6.851562 -18.738281 6.15625 -18.46875 C 5.46875 -18.195312 4.882812 -17.828125 4.40625 -17.359375 C 3.9375 -16.890625 3.578125 -16.335938 3.328125 -15.703125 C 3.085938 -15.066406 2.96875 -14.382812 2.96875 -13.65625 L 2.96875 0 L 1.796875 0 L 1.796875 -13.296875 C 1.796875 -14.328125 1.953125 -15.25 2.265625 -16.0625 C 2.585938 -16.875 3.035156 -17.566406 3.609375 -18.140625 C 4.191406 -18.722656 4.894531 -19.164062 5.71875 -19.46875 C 6.550781 -19.78125 7.492188 -19.9375 8.546875 -19.9375 C 9.585938 -19.9375 10.523438 -19.773438 11.359375 -19.453125 C 12.203125 -19.140625 12.910156 -18.695312 13.484375 -18.125 C 14.066406 -17.5625 14.507812 -16.867188 14.8125 -16.046875 C 15.125 -15.222656 15.28125 -14.304688 15.28125 -13.296875 Z M 15.28125 0 "/></g></g><g style="fill:#5271ff;fill-opacity:1;"><g transform="translate(234.929526, 98.749724)"><path style="stroke:none" d="M 13.609375 -14.84375 C 13.609375 -13.664062 13.351562 -12.648438 12.84375 -11.796875 C 12.34375 -10.953125 11.523438 -10.332031 10.390625 -9.9375 L 10.390625 -9.890625 C 11.523438 -9.679688 12.410156 -9.179688 13.046875 -8.390625 C 13.679688 -7.609375 14 -6.628906 14 -5.453125 L 14 0 L 12.765625 0 L 12.765625 -5.625 C 12.765625 -6.75 12.375 -7.640625 11.59375 -8.296875 C 10.8125 -8.960938 9.691406 -9.296875 8.234375 -9.296875 L 4.09375 -9.296875 L 4.09375 -10.296875 L 7.359375 -10.296875 C 8.984375 -10.296875 10.222656 -10.6875 11.078125 -11.46875 C 11.941406 -12.257812 12.375 -13.347656 12.375 -14.734375 C 12.375 -15.347656 12.253906 -15.90625 12.015625 -16.40625 C 11.785156 -16.914062 11.460938 -17.347656 11.046875 -17.703125 C 10.628906 -18.066406 10.125 -18.351562 9.53125 -18.5625 C 8.945312 -18.769531 8.304688 -18.875 7.609375 -18.875 C 6.097656 -18.875 4.945312 -18.410156 4.15625 -17.484375 C 3.363281 -16.554688 2.96875 -15.367188 2.96875 -13.921875 L 2.96875 0 L 1.796875 0 L 1.796875 -13.859375 C 1.796875 -14.710938 1.925781 -15.515625 2.1875 -16.265625 C 2.445312 -17.015625 2.828125 -17.660156 3.328125 -18.203125 C 3.835938 -18.742188 4.453125 -19.164062 5.171875 -19.46875 C 5.890625 -19.78125 6.703125 -19.9375 7.609375 -19.9375 C 8.523438 -19.9375 9.351562 -19.8125 10.09375 -19.5625 C 10.832031 -19.3125 11.460938 -18.957031 11.984375 -18.5 C 12.503906 -18.039062 12.90625 -17.5 13.1875 -16.875 C 13.46875 -16.25 13.609375 -15.570312 13.609375 -14.84375 Z M 13.609375 -14.84375 "/></g></g><g style="fill:#5271ff;fill-opacity:1;"><g transform="translate(250.493219, 98.749724)"><path style="stroke:none" d="M 20.859375 -9.796875 C 20.859375 -8.421875 20.597656 -7.117188 20.078125 -5.890625 C 19.554688 -4.671875 18.847656 -3.597656 17.953125 -2.671875 C 17.054688 -1.742188 16 -1.007812 14.78125 -0.46875 C 13.570312 0.0703125 12.265625 0.34375 10.859375 0.34375 C 9.460938 0.34375 8.15625 0.0703125 6.9375 -0.46875 C 5.726562 -1.007812 4.679688 -1.742188 3.796875 -2.671875 C 2.910156 -3.597656 2.207031 -4.671875 1.6875 -5.890625 C 1.175781 -7.117188 0.921875 -8.421875 0.921875 -9.796875 C 0.921875 -11.160156 1.171875 -12.457031 1.671875 -13.6875 C 2.179688 -14.925781 2.882812 -16.003906 3.78125 -16.921875 C 4.675781 -17.847656 5.726562 -18.582031 6.9375 -19.125 C 8.15625 -19.664062 9.460938 -19.9375 10.859375 -19.9375 C 12.296875 -19.9375 13.625 -19.660156 14.84375 -19.109375 C 16.070312 -18.554688 17.128906 -17.8125 18.015625 -16.875 C 18.898438 -15.945312 19.59375 -14.867188 20.09375 -13.640625 C 20.601562 -12.421875 20.859375 -11.140625 20.859375 -9.796875 Z M 10.859375 -0.734375 C 12.054688 -0.734375 13.1875 -0.96875 14.25 -1.4375 C 15.3125 -1.914062 16.242188 -2.566406 17.046875 -3.390625 C 17.847656 -4.210938 18.476562 -5.171875 18.9375 -6.265625 C 19.394531 -7.367188 19.625 -8.546875 19.625 -9.796875 C 19.625 -11.015625 19.398438 -12.164062 18.953125 -13.25 C 18.503906 -14.34375 17.890625 -15.304688 17.109375 -16.140625 C 16.328125 -16.972656 15.398438 -17.632812 14.328125 -18.125 C 13.253906 -18.625 12.09375 -18.875 10.84375 -18.875 C 9.625 -18.875 8.488281 -18.632812 7.4375 -18.15625 C 6.382812 -17.675781 5.460938 -17.023438 4.671875 -16.203125 C 3.890625 -15.390625 3.273438 -14.429688 2.828125 -13.328125 C 2.378906 -12.222656 2.15625 -11.046875 2.15625 -9.796875 C 2.15625 -8.585938 2.375 -7.429688 2.8125 -6.328125 C 3.25 -5.222656 3.851562 -4.253906 4.625 -3.421875 C 5.40625 -2.597656 6.328125 -1.941406 7.390625 -1.453125 C 8.453125 -0.972656 9.609375 -0.734375 10.859375 -0.734375 Z M 10.859375 -0.734375 "/></g></g><g style="fill:#5271ff;fill-opacity:1;"><g transform="translate(272.271198, 98.749724)"><path style="stroke:none" d="M 15.28125 0 L 14.109375 0 L 14.109375 -9.578125 L 4.09375 -9.578125 L 4.09375 -10.578125 L 14.109375 -10.578125 L 14.109375 -13.65625 C 14.109375 -14.382812 13.988281 -15.066406 13.75 -15.703125 C 13.507812 -16.335938 13.148438 -16.890625 12.671875 -17.359375 C 12.191406 -17.828125 11.609375 -18.195312 10.921875 -18.46875 C 10.234375 -18.738281 9.441406 -18.875 8.546875 -18.875 C 7.648438 -18.875 6.851562 -18.738281 6.15625 -18.46875 C 5.46875 -18.195312 4.882812 -17.828125 4.40625 -17.359375 C 3.9375 -16.890625 3.578125 -16.335938 3.328125 -15.703125 C 3.085938 -15.066406 2.96875 -14.382812 2.96875 -13.65625 L 2.96875 0 L 1.796875 0 L 1.796875 -13.296875 C 1.796875 -14.328125 1.953125 -15.25 2.265625 -16.0625 C 2.585938 -16.875 3.035156 -17.566406 3.609375 -18.140625 C 4.191406 -18.722656 4.894531 -19.164062 5.71875 -19.46875 C 6.550781 -19.78125 7.492188 -19.9375 8.546875 -19.9375 C 9.585938 -19.9375 10.523438 -19.773438 11.359375 -19.453125 C 12.203125 -19.140625 12.910156 -18.695312 13.484375 -18.125 C 14.066406 -17.5625 14.507812 -16.867188 14.8125 -16.046875 C 15.125 -15.222656 15.28125 -14.304688 15.28125 -13.296875 Z M 15.28125 0 "/></g></g></g></svg>